<?xml version="1.0" standalone="no"?><!DOCTYPE svg PUBLIC "-//W3C//DTD SVG 1.1//EN" "http://www.w3.org/Graphics/SVG/1.1/DTD/svg11.dtd"><svg t="1665628661662" class="icon" viewBox="0 0 1024 1024" version="1.1" xmlns="http://www.w3.org/2000/svg" p-id="9306" xmlns:xlink="http://www.w3.org/1999/xlink" width="200" height="200"><path d="M924 475.8l-741.3 0.4 316.9-339.7c13.6-14.5 12.8-37.3-1.8-50.9-14.5-13.6-37.3-12.8-50.9 1.8L73.5 487.7l-0.2 0.2c-0.2 0.3-0.5 0.5-0.7 0.8-0.2 0.2-0.3 0.4-0.5 0.6-0.2 0.3-0.4 0.5-0.6 0.8-0.2 0.2-0.3 0.4-0.5 0.6-0.2 0.2-0.3 0.5-0.5 0.7-0.2 0.3-0.4 0.5-0.5 0.8-0.1 0.2-0.2 0.4-0.4 0.6l-0.6 0.9c-0.1 0.1-0.1 0.2-0.2 0.3l-1.2 2.1c-0.4 0.7-0.7 1.5-1 2.2-0.4 1-0.8 2.1-1.2 3.2 0 0.1-0.1 0.2-0.1 0.3-0.1 0.4-0.3 0.8-0.4 1.3-0.1 0.5-0.3 1.1-0.4 1.6 0 0.1 0 0.2-0.1 0.3-0.1 0.4-0.1 0.8-0.2 1.1 0 0.2-0.1 0.4-0.1 0.6 0 0.3-0.1 0.6-0.1 0.9 0 0.3-0.1 0.6-0.1 0.8 0 0.3 0 0.5-0.1 0.8 0 0.3-0.1 0.6-0.1 1v2.4c0 8.8 3.2 17.6 9.7 24.6l373.4 400.3c7.1 7.6 16.7 11.4 26.3 11.4 8.8 0 17.6-3.2 24.5-9.7 14.5-13.6 15.3-36.3 1.8-50.9L182.3 548.2l741.7-0.4c19.9 0 36-16.1 36-36s-16.2-36-36-36z" p-id="9307"></path></svg>