<?xml version="1.0" standalone="no"?><!DOCTYPE svg PUBLIC "-//W3C//DTD SVG 1.1//EN" "http://www.w3.org/Graphics/SVG/1.1/DTD/svg11.dtd"><svg t="1667112940241" class="icon" viewBox="0 0 1024 1024" version="1.1" xmlns="http://www.w3.org/2000/svg" p-id="2720" xmlns:xlink="http://www.w3.org/1999/xlink" width="32" height="32"><path d="M853.22 802.31A446.25 446.25 0 0 0 960 512c0-247.42-200.58-448-448-448S64 264.58 64 512s200.58 448 448 448a446.25 446.25 0 0 0 290.31-106.78l96.23 96.23a36 36 0 0 0 50.92-50.92zM512 888c-207.11 0-375-168.34-375-376s167.89-376 375-376 375 168.34 375 376-167.89 376-375 376z" p-id="2721"></path><path d="M752.2 636.25a36 36 0 0 0-50.13 8.84l-0.75 1c-0.82 1.16-1.65 2.3-2.49 3.45-0.11 0.15-0.22 0.31-0.34 0.46A230.51 230.51 0 0 1 626 714q-7.81 4.41-16 8.24a36 36 0 1 0 30.43 65.26 305.53 305.53 0 0 0 97.64-72.38l1.5-1.69c0.87-1 1.74-2 2.59-2.95A303.58 303.58 0 0 0 761 686.32l0.07 0.06a36 36 0 0 0-8.87-50.13zM471.1 210.73c-135.18 18.18-242.18 125.2-260.36 260.38a36 36 0 0 0 71.37 9.68A232.1 232.1 0 0 1 480.79 282.1a36 36 0 0 0-9.69-71.37z" p-id="2722"></path></svg>